<svg height="512" viewBox="0 0 512 512" width="512" xmlns="http://www.w3.org/2000/svg"><path d="m194.626 193.75-19.5-13a16 16 0 0 1 -7.126-13.313v-23.437h-64v23.437a16 16 0 0 1 -7.125 13.313l-19.5 13a48 48 0 0 0 -21.375 39.939v246.311a16 16 0 0 0 16 16h128a16 16 0 0 0 16-16v-246.311a48 48 0 0 0 -21.374-39.939z" fill="#e13741"/><path d="m78 480h-12v-246.311a37.926 37.926 0 0 1 16.921-31.618l19.5-13a25.947 25.947 0 0 0 11.579-21.634v-23.437h12v23.437a37.926 37.926 0 0 1 -16.921 31.618l-19.5 13a25.947 25.947 0 0 0 -11.579 21.634z" fill="#ff555f"/><rect fill="#736969" height="32" rx="8" width="80" x="96" y="16"/><path d="m168 16h-40a8 8 0 0 1 8 8v16a8 8 0 0 1 -8 8h40a8 8 0 0 0 8-8v-16a8 8 0 0 0 -8-8z" fill="#3c413c"/><path d="m194.626 193.75-19.5-13a16 16 0 0 1 -7.126-13.313v-23.437h-32v336h-80a16 16 0 0 0 16 16h128a16 16 0 0 0 16-16v-246.311a48 48 0 0 0 -21.374-39.939z" fill="#aa2823"/><path d="m104 48h32v96h-32z" fill="#736969"/><path d="m136 48h32v96h-32z" fill="#3c413c"/><path d="m104 48h32v8h-32z" fill="#3c413c"/><path d="m56 269.333h80v133.333h-80z" fill="#d7e6f0"/><path d="m136 269.333h80v133.333h-80z" fill="#a5c3dc"/><path d="m66 269.333h12v133.333h-12z" fill="#fff"/><path d="m396.853 251.147a120 120 0 1 0 35.147 84.853 119.215 119.215 0 0 0 -35.147-84.853z" fill="#fff"/><path d="m312 192a144 144 0 1 0 144 144 144 144 0 0 0 -144-144zm0 264a120 120 0 1 1 84.853-35.147 119.215 119.215 0 0 1 -84.853 35.147z" fill="#ff555f"/><path d="m260 296a20.023 20.023 0 0 0 -20 20v60a8 8 0 0 0 16 0v-32h8v32a8 8 0 0 0 16 0v-60a20.023 20.023 0 0 0 -20-20zm-4 32v-12a4 4 0 0 1 8 0v12z" fill="#aa2823"/><path d="m325.333 368h-12a4 4 0 0 1 -4-4v-60a8 8 0 0 0 -16 0v60a20.023 20.023 0 0 0 20 20h12a8 8 0 1 0 0-16z" fill="#aa2823"/><path d="m373.333 368h-12a4 4 0 0 1 -4-4v-48a4 4 0 0 1 4-4h12a8 8 0 1 0 0-16h-12a20.023 20.023 0 0 0 -20 20v48a20.023 20.023 0 0 0 20 20h12a8 8 0 1 0 0-16z" fill="#aa2823"/><path d="m360 104a47.852 47.852 0 0 0 -18.632 3.751 63.828 63.828 0 0 0 -18.623-49.006l-10.745-10.745-10.745 10.745a63.828 63.828 0 0 0 -18.623 49.006 47.852 47.852 0 0 0 -18.632-3.751 8 8 0 0 0 -8 8 48 48 0 0 0 48 48h16a48 48 0 0 0 48-48 8 8 0 0 0 -8-8z" fill="#73a041"/><path d="m360 104a47.834 47.834 0 0 0 -18.632 3.752 63.829 63.829 0 0 0 -18.623-49.007l-10.745-10.745v112h8a48 48 0 0 0 48-48 8 8 0 0 0 -8-8z" fill="#506932"/><circle cx="312" cy="232" fill="#aa2823" r="24"/><circle cx="296" cy="136" fill="#aa2823" r="24"/><circle cx="288" cy="128" fill="#e13741" r="8"/><circle cx="328" cy="136" fill="#aa2823" r="24"/><circle cx="320" cy="128" fill="#e13741" r="8"/><circle cx="296" cy="200" fill="#aa2823" r="24"/><circle cx="328" cy="200" fill="#aa2823" r="24"/><circle cx="280" cy="168" fill="#aa2823" r="24"/><circle cx="272" cy="160" fill="#e13741" r="8"/><circle cx="344" cy="168" fill="#aa2823" r="24"/><circle cx="312" cy="168" fill="#aa2823" r="24"/><g fill="#e13741"><circle cx="304" cy="160" r="8"/><circle cx="336" cy="160" r="8"/><circle cx="288" cy="192" r="8"/><circle cx="320" cy="192" r="8"/><circle cx="304" cy="224" r="8"/></g></svg>